<svg xmlns="http://www.w3.org/2000/svg" id="Layer_2" data-name="Layer 2" viewBox="0 0 1435.63 469.65"><defs><style>.cls-1{fill:#fff}</style></defs><g id="Warstwa_2" data-name="Warstwa 2"><path d="M628.02 150.5c.05-.04.1-.07.15-.11-.18-.1-.36-.2-.54-.31.26.27.39.41.39.41zm96.44 56.2c-20.3-1.98-36.39 5.01-48.29 20.97-2.06 2.77-4.89 7.72-8.48 14.87-.59 1.16-1.41 1.21-2.49.14-.22-.21-.33-.47-.33-.77l-.04-34.99a.883.883 0 0 0-1.39-.72c-8.76 6.03-18.51 9.01-29.24 8.93-.08 0-.16.04-.21.12-.31.57-.29 1.14.04 1.73 5.5 9.97 6.28 22.7 6.54 33.84.38 17.04.24 34.07-.42 51.09-.46 11.49-1.38 23.69-5.87 34.43-.08.18-.11.38-.11.57 0 .83.67 1.51 1.5 1.51h34.74c.37-.01.71-.24.85-.58.19-.48.14-1.11-.17-1.89a65.213 65.213 0 0 1-4.22-17.02c-1.65-15.28-2.3-30.59-1.95-45.96.59-26.52 18.64-62.03 51.01-56.13 15.45 2.82 23.88 12.07 25.3 27.76.72 7.92-1.14 14.48-5.57 19.68-9.25 10.85-26.19 11.53-34.4-.39-4.86-7.07-4.5-13.71 1.1-19.9.2-.24.22-.59.03-.84l-.31-.43c-.37-.48-.79-.53-1.27-.16-10.49 8.23-10.28 23-2.36 32.89 7.56 9.43 17.77 13.55 30.62 12.34 19.61-1.85 33.97-16 35.36-35.41 1.79-25.18-15.68-43.32-39.97-45.69zm385.19 76.87c0-25.53-.02-50.83-.03-75.92 0-.23-.08-.46-.21-.65-.36-.5-1.06-.61-1.56-.25-8.29 6.06-17.63 9.11-28.02 9.16a1.376 1.376 0 0 0-1.19 2.06c5.74 10.01 6.24 22.01 6.45 33.17.3 15.94.18 31.87-.35 47.8-.55 16.32-1.44 26.62-5.75 38.63-.39 1.1 0 1.65 1.17 1.65l34.66.03c1.05 0 1.4-.5 1.06-1.49-6-17.54-6.22-36.17-6.22-54.2zm-541.58 17.19c.09 2.66 1.21 6.12 2.74 8.07.63.8 1.34.91 2.12.33.34-.25.47-.59.38-1-4.11-20.31 26.69-23.19 31.57-6.48 5.49 18.8-7.74 32.59-25.52 34.56-40.94 4.55-66.48-27.71-66.09-66.01.02-1.28.66-1.83 1.91-1.65 27.33 3.81 58.51 5.31 83.99-4.44 12.38-4.73 21.93-16.39 17.46-30.35-4.35-13.6-17.38-21.27-30.71-24.22-45.21-9.97-94.19 10.07-97.15 61.57-2.82 48.77 46.19 74.67 88.96 70.03 23.38-2.54 48.69-19.76 41.17-47.06-7.51-27.21-51.8-24.52-50.84 6.65zm6.72-87.95c12.89 2.28 22.35 11.92 23.03 24.72 1.82 33.58-64.43 29.2-83.46 27.51-.43-.04-.62-.27-.59-.69 2.45-32.72 26.49-57.65 61.02-51.54zm481.59 83.35c-.2-7.32-.23-18.5-.09-33.54.33-36.27-29.65-63.76-66.76-52.93-10.97 3.2-19.43 9.85-25.38 19.97-1.04 1.76-2.1 3.52-3.18 5.27-.24.41-.53.67-.85.77-.44.15-.85.14-1.23-.04-.38-.17-.56-.46-.56-.88l-.04-26.86c0-.26-.08-.51-.23-.71-.39-.54-1.14-.66-1.68-.27-8.24 6.03-17.51 9.02-27.83 8.95a1.486 1.486 0 0 0-1.26 2.27c5.58 8.93 6.59 20.46 6.83 32.99.46 24.07.86 49.18-2.5 73.02-.64 4.55-1.86 9.16-3.65 13.83-.06.15-.09.31-.09.47 0 .73.59 1.33 1.32 1.33h34.72c.05 0 .11 0 .16-.01.48-.09.81-.56.72-1.05-.08-.39-.22-.86-.42-1.4a65.732 65.732 0 0 1-3.6-14.48c-2.82-21.27-2.78-43.1-2.31-64.52.2-9.18 2.45-16.81 6.76-22.9 11.08-15.68 31.85-20.06 48.47-10.53 11.95 6.84 18.08 20.75 18.2 34.1.14 14.96-.09 29.91-.69 44.86-.59 14.66-1.61 23.32-5.58 33.81-.53 1.42-.04 2.14 1.48 2.14l34.32-.03a1.297 1.297 0 0 0 1.22-1.78c-4.81-12-5.79-24.89-6.25-41.84zm379.25 20.21a.635.635 0 0 0-.71-.56l-.42.05c-.62.07-1.13.54-1.24 1.15-1.95 10.58-13.24 14.42-19.23 4.36-2.38-4-3.96-8.31-4.76-12.92-3.02-17.69-6.06-35.38-9.12-53.06-4.19-24.3-16.96-42.55-42.24-47.21-15.16-2.79-35.27-.41-45.92 11.72-6.42 7.31-7.93 17.41-1.91 25.3 6.13 8.04 14.74 11.26 25.83 9.64 11.8-1.73 20.33-12.67 15-24.45-.17-.39-.57-.62-1-.59l-.86.07c-.52.04-.74.33-.66.85 2.69 17.66-26.57 18.84-29.12 2.08-1.99-13.15 8.06-20.28 19.91-20.7 23.63-.81 32.32 15.18 35.97 35.76 1.63 9.22 3.26 18.6 4.89 28.13v.09c.02.46-.33.85-.78.88-.48.03-.95-.21-1.4-.72-8.3-9.28-18.69-14.61-31.19-15.97-21.04-2.31-43.99 6.58-50.65 28.53-5.28 17.42 1.57 37.6 17.97 46.45 24.94 13.45 59.8 6.45 70.79-22.41.05-.12.12-.24.2-.35.45-.56 1.27-.65 1.83-.2.44.35.72.91.86 1.68 2.29 12.79 9.45 26.07 23.84 27.52 15.84 1.6 23.16-11.2 24.08-25.03v-.11zm-54.15-6.19c-3.17 8.41-10 15.16-18.67 18.48-1.73.66-3.54 1.19-5.4 1.56-1.07.21-2.15.38-3.25.49-1.1.11-2.22.17-3.35.18-2.26.01-4.47-.2-6.61-.6-.53-.1-1.06-.22-1.59-.34-1.05-.25-2.08-.55-3.08-.9-.5-.17-1-.36-1.49-.55-.65-.26-1.29-.55-1.92-.84-.79-.38-1.57-.77-2.33-1.21-.6-.34-1.18-.71-1.76-1.09-.47-.31-.94-.64-1.4-.98-.47-.34-.92-.7-1.37-1.07-.37-.3-.73-.61-1.08-.93a31.774 31.774 0 0 1-6.62-8.35c-.58-1.07-1.1-2.18-1.56-3.31a29.984 29.984 0 0 1-2.14-10.98c0-1.08.05-2.15.15-3.2 1.1-10.89 8.04-20.15 17.79-24.9.63-.31 1.26-.6 1.92-.87.98-.4 1.98-.76 3-1.07.51-.16 1.03-.3 1.55-.43 2.61-.66 5.36-1.01 8.18-1.03 14.7-.08 27.19 9.12 31.41 21.84.16.49.31.98.45 1.48.27 1 .5 2.02.67 3.05a30 30 0 0 1 .4 4.77c.02 3.78-.66 7.41-1.93 10.78zM303.69 299.83c-6.77 27.07-34.32 30.45-34.32 30.45 19.82 3.38 27.55 30.45 27.55 30.45 6.77-27.07 33.84-27.07 33.84-27.07-33.84-6.77-27.07-33.84-27.07-33.84zM194.15 176.78c-7.12 11.35-11.32 22.39-13.86 31.61 0-10.9.45-22.57 1.54-34.91 2.09-23.58 6.11-44.68 10.76-62.88a188.628 188.628 0 0 0-49.56 33.57 188.568 188.568 0 0 0-37.96 50.11c.28-11.15.77-22.65 1.52-34.45 1.14-17.98 2.76-35.19 4.74-51.57-23.84 14.76-53.46 37.17-80.77 70.41a322.448 322.448 0 0 0-26.29 37.06C2.1 227.3 1.08 236.93.56 243.92c-.53 6.85-.56 11.02-.56 12.3 0 2.13-.12 24.48 2.61 24.77 1.91.21 3.71-10.58 8.52-25.51 0 0 5.95-18.46 15.16-36.32 13.81-26.76 31.2-44.28 41.87-54.86a258.156 258.156 0 0 1 25.64-22.29c-2.16 10.5-3.84 22.89-4.09 36.81-.5 27.61 4.8 50.55 10.06 66.69 5.7-17.72 16.34-43.04 36.86-68.32a208.21 208.21 0 0 1 32.23-31.87c-1.39 17.56-1.83 37.9-.2 60.4 1.29 17.81 3.67 34.02 6.5 48.37 2.6-11.49 9.17-33.27 27.05-54.28 13.71-16.1 28.62-25.36 38.32-30.36 1.17-6.28 3.26-14.3 7.18-23.11 4.01-9.01 8.7-16.07 12.67-21.19-13.41 4.79-45.36 18.37-66.24 51.65z" class="cls-1"/><path d="M264.9 293.65c-3.11-11.99-14.36-19.38-21-24-3.96-2.75-6.15-3.65-9-7-1.12-1.32-7.87-9.26-6.04-18.79.02-.09.03-.15.04-.21 1.59-7.89 6.13-13.26 8.95-16.02-7.65 1.82-18.24 5.45-28.82 13.15-25.78 18.75-31.85 47.32-33.26 55.24-5.13-8.48-10.57-19.41-14.58-32.7-9.13-30.25-6.03-56.71-3.01-71.64a243.549 243.549 0 0 0-39.78 47 243.493 243.493 0 0 0-23.43 46.31 401.752 401.752 0 0 1-11.84-43.29 404.603 404.603 0 0 1-8.12-58.4c-9.7 9.18-20.29 20.86-30.22 35.43-24.54 36-32.99 71.87-36.22 94.56 1.74 6.26 4.36 15.79 7.42 27.45 6.51 24.82 9.35 37.67 10.68 37.46 1.19-.19-.52-10.56.07-29.59.2-6.39.75-15.82 2.42-27.02 2.44-16.31 5.99-27.95 7.62-32.95.1-.31.24-.73.41-1.26 1.34-4.02 6.04-17.76 16.03-36.23 2.54-4.7 6.07-10.9 10.66-18.02 2.11 12.56 5.3 26.65 10.15 41.77a298.528 298.528 0 0 0 26.41 59.2c1.82-15.27 6.72-38.69 21.12-63.22a159.705 159.705 0 0 1 22.09-29.3c-.29 12.62.87 38.44 15.58 66.03 10.88 20.4 24.81 33.59 33.95 40.95-2.9-10.75-13.15-53.64 11.29-88.27 4.74-6.71 10.1-12.15 15.52-16.58-.44 3.41-.68 8.73.9 14.92 1.8 7.05 5.07 11.72 6 13 3.06 4.2 5.31 5.35 8 8 6.45 6.37 10.95 16.85 10 27-.27 2.86-1.54 16.38-12 22-1.26.68-6.1 3.19-12 2-9.14-1.84-15.9-11.59-15-20 .11-1.06.67-6.27 5-9 2.73-1.72 7.36-2.73 11 0 3.23 2.42 4.5 6.92 3 11 4.77-6.3 5.05-14.51 1-20-4.46-6.04-12.14-6.02-13-6-8.29.16-13.08 6.73-14 8-5.45 7.47-3.59 16.23-3 19 2.82 13.29 14.54 19.28 16 20 4.22 2.07 8 2.59 11 3 8.22 1.12 14.65-.37 17-1 3.32-.88 8.07-2.2 13-6 1.11-.86 6.5-5.14 10-13 1.24-2.79 4.86-11.97 2-23zm995.85-39.29a864.448 864.448 0 0 1 101.15-108.71 1551.314 1551.314 0 0 0-114.36 31.29c-10.07-48.47-20.14-96.94-30.22-145.41-11.3 56.06-22.61 112.13-33.91 168.19-6.44 2.79-47.57 21-61.41 27.32 7.42 5.89 39.25 34.23 46.54 41.52a2072.87 2072.87 0 0 1-45.11 180.66c-2.04 6.85-4.11 13.66-6.21 20.44 9.2-13.13 18.64-26.35 28.33-39.66 5.15-7.07 10.29-14.06 15.43-20.97 8.08-42.74 16.15-85.48 24.23-128.22l18.07 17c-5.79 10.62-11.59 21.24-17.38 31.85-1.45 9.4-9.53 51.43-12 62 13.84-26.25 27.69-52.5 41.53-78.75 17.12 15.99 42.49 37.72 42.47 37.75-.12.14 27.98 24.42 35 30-14.36-41.72-31.66-118.5-32.15-126.29zm-86.74-4.97c-8.52-6.54-17.04-13.08-25.55-19.62 10.36-3.13 20.72-6.27 31.08-9.4-1.84 9.67-3.69 19.35-5.53 29.02zm97.45-64.8c17.45-6.33 34.51-11.98 51.09-17.03a524.502 524.502 0 0 0-27.51 24.89 526.87 526.87 0 0 0-38.07 41.14c-2.16-13.71-4.31-27.43-6.47-41.14 6.86-2.66 13.85-5.28 20.96-7.86zm-55.09-82.56a1358.938 1358.938 0 0 1 16.06 80.57l-32.1 11.33 16.05-91.9zm-2.83 184.43-24.55-24.55c.41-6.78 6.21-39.82 8.4-47.09 7.26-3.17 32.18-14.15 37.34-16.44l7.14 46.53c-6.26 8.06-25.39 36.61-28.33 41.55zm9.44 11.33c3.65-4.98 7.42-10.02 11.33-15.11 4.11-5.35 8.2-10.54 12.26-15.57.32 6.34 12.53 58.07 19.06 70.88-14.22-13.4-28.44-26.8-42.65-40.21zm-111.44-105.73c3.33-8.42-.76-18.08-1.61-18.02-.77.06 1.43 8.19-3.03 15.61-3.29 5.48-9.85 9.93-17 10-1.6.01-7.06-.15-11.23-3.79-.67-.58-2.11-1.76-3.04-3.85-3.14-7.08.39-13.05 6.26-17.25 1.47-1.05 3.4-2.33 6.2-2.57 1.25-.11 4.86-.41 6.93 2.09 2.28 2.75.88 6.7.76 7.02-1.37 3.69-5.62 6.15-10.69 6.15l.12 1.04c3.05.02 6.21-.47 9.18-1.79 1.21-.54 7.91-4.35 8.02-10.76.07-4.64-3.38-7.86-3.59-8.05-6.06-5.5-18.23-3.14-25.65 2.73-1.6 1.27-7.23 5.9-8.52 14.02-1.21 7.6 1.79 15.68 7.26 19.99 11.82 9.32 34.46.5 39.64-12.59zM536.45 12.19c-14.74 8.19-18.84 10.01-24.37 10.66-8.28.98-15.31-1.17-19.8-3.05l-7.62 35.03c-1.9 8.76-7.61 35.01-7.62 35.03-4.15 19.09-12.4 75.16-29.26 216.93-11-24.03-21.86-52.78-30.14-85.94a493.764 493.764 0 0 1-9.14-45.69c-5.93 16.27-12.47 33.09-19.69 50.36-8.4 20.09-17.01 39.1-25.66 57.02 0 0-4.92-83.01-44.52-233.8 0 0-1.52 22.85-32.75 34.27 0 0 44.93 49.5 60.16 255.13 0 0 8.68 7.62 16.53 0 7.84-7.62 41.35-92.91 41.35-92.91s22.2 72.26 43.85 96.3c0 0 10.22 6.43 16.69 0 0 0 9.52-254.7 93.3-341.52-8.25 4.84-15.48 8.93-21.32 12.19zm364.4 219.67c8.51-17.18 10.93-30.57 5.2-35.88-6.13-5.69-20.36-.87-37.78 11.37-9.05-2.77-26.69-6.06-45.97 2.07-25.88 10.91-35.04 34.08-36.52 38.04a78.717 78.717 0 0 0-4.18 25.29c0 11.78 2.63 21.32 4.99 27.63-9.8 18.69-12.89 33.42-6.83 39.03 5.95 5.54 19.52 1.17 36.23-10.24 6.94 3.85 17.5 8.06 30.66 8.06 17.65 0 30.08-7.56 35-10.65 13.92-8.73 21.21-20.16 24.35-25.87 2.74-6.22 7.27-18.81 6.09-35-1.11-15.11-6.73-26.7-11.23-33.86zM887 218.37c-5.93-6.39-15.97-9.58-15.97-9.58 39.24-26.01 15.97 9.58 15.97 9.58zm-97.91 86.23s4.59 9.48 11.76 14.44c0 0-31.91 28.11-11.76-14.44zm24.08 2.21c-4.43-.27-7.44-5.87-9.13-9.13-2.5-4.79-3.94-10.01-4.56-16.74-.05-.5-.09-1.02-.14-1.57-.47-5.3-.82-12.52 1.66-21.26 1.11-3.9 5.17-17.36 18.26-27.39 2.88-2.21 9.59-7.23 19.78-9.13 4.37-.82 8.34-.87 11.87-.52 5.83.59 10.53 2.3 14 3.56 10.8 3.93 11.96 8.17 12.17 9.13.26 1.16.18 2.22 0 3.04-2.11 9.24-22.69 31.67-24.35 33.48-4.43 4.84-25.11 28.09-35 35-.76.53-2.45 1.66-4.56 1.52zm85.21-22.82c-.67 2.34-3.01 10.01-9.13 18.26-2.68 3.61-10.89 14.38-25.87 19.78a51.594 51.594 0 0 1-16.74 3.04c-7.7.11-16.02-1.66-19.98-3.8 5.8-4.63 11.82-9.92 17.92-15.79.71-.58 1.4-1.16 2.05-1.7 5.4-4.49 8.9-8.46 12.17-12.17 2.92-3.32 5.22-6.24 7.2-8.92 11.49-13.41 21.14-26.8 28.36-38.98 1.26 2.28 2.3 4.84 2.48 5.3 2.08 5.2 2.78 9.68 3.04 12.17.52 5.08 1.26 13.01-1.52 22.82z" class="cls-1"/></g></svg>